<?xml version="1.0" encoding="utf-8"?>
<!-- Generator: Adobe Illustrator 19.1.0, SVG Export Plug-In . SVG Version: 6.00 Build 0)  -->
<svg version="1.1"
	 id="Capa_1" xmlns:svg="http://www.w3.org/2000/svg" xmlns:dc="http://purl.org/dc/elements/1.1/" xmlns:cc="http://creativecommons.org/ns#" xmlns:inkscape="http://www.inkscape.org/namespaces/inkscape" xmlns:rdf="http://www.w3.org/1999/02/22-rdf-syntax-ns#" xmlns:sodipodi="http://sodipodi.sourceforge.net/DTD/sodipodi-0.dtd"
	 xmlns="http://www.w3.org/2000/svg" xmlns:xlink="http://www.w3.org/1999/xlink" x="0px" y="0px" viewBox="-12 -40 100 100"
	 style="enable-background:new -12 -40 100 100;" xml:space="preserve">
<path d="M35.3-17.5c-0.4,0-0.8,0.3-0.9,0.6L30.7-4.9c0,0.1,0,0.2,0,0.3v0.1c-0.1,0-0.2,0.1-0.3,0.2l-12.3,11
	c-0.2,0.2-0.3,0.5-0.3,0.8c0,0,0,0.1,0,0.1v1.5c0,0.5,0.4,0.9,0.9,0.9s0.9-0.4,0.9-0.9c0,0,0,0,0,0V8.2h1.8v0.9
	c0,0.5,0.4,0.9,0.9,0.9s0.9-0.4,0.9-0.9c0,0,0,0,0,0V8.2h5h0.2l-10.5,9.4c-0.2,0.2-0.3,0.5-0.3,0.8c0,0,0,0.1,0,0.1v1.5
	c0,0.5,0.4,0.9,0.9,0.9s0.9-0.4,0.9-0.9c0,0,0,0,0,0v-0.9h1.8v0.9c0,0.5,0.4,0.9,0.9,0.9s0.9-0.4,0.9-0.9c0,0,0,0,0,0v-0.9h6.8
	l-8.2,16.5H10.5v1.8h15.3l0,0l0,0h24.3l0,0l0,0h15.3v-1.8H54.1l-8.2-16.5h6.8v0.9c0,0.5,0.4,0.9,0.9,0.9c0.5,0,0.9-0.4,0.9-0.9
	c0,0,0,0,0,0v-0.9h1.8v0.9c0,0.5,0.4,0.9,0.9,0.9c0.5,0,0.9-0.4,0.9-0.9c0,0,0,0,0,0v-1.5c0,0,0-0.1,0-0.1c0.1-0.3-0.1-0.6-0.3-0.8
	L47.4,8.2h0.2h5v0.9c0,0.5,0.4,0.9,0.9,0.9c0.5,0,0.9-0.4,0.9-0.9c0,0,0,0,0,0V8.2h1.8v0.9c0,0.5,0.4,0.9,0.9,0.9
	c0.5,0,0.9-0.4,0.9-0.9c0,0,0,0,0,0V7.6c0,0,0-0.1,0-0.1c0.1-0.3-0.1-0.6-0.3-0.8l-12.2-11c-0.1-0.1-0.2-0.2-0.3-0.2v0
	c0-0.1,0-0.2,0-0.3l-3.7-11.9c-0.1-0.4-0.5-0.6-0.9-0.6H35.3z M35.9-15.7h4.1l3.4,11H32.5L35.9-15.7z M34-2.8h8l-4,3.4L34-2.8z
	 M45.3-2.3l9.5,8.6h-7.2h-2.3V-2.3z M30.7-2.2v8.5h-2.3h-7.2L30.7-2.2L30.7-2.2z M32.5-1.7l4.1,3.5l-4.1,3.5V-1.7z M43.5-1.7v6.9
	l-4.1-3.5L43.5-1.7L43.5-1.7z M38,3l4,3.4h-8L38,3L38,3z M34,8.2h8l-4,3.4L34,8.2z M45.3,8.7l9.5,8.6h-9.5
	C45.3,17.3,45.3,8.7,45.3,8.7z M30.7,8.8v8.5h-9.5L30.7,8.8L30.7,8.8z M32.5,9.3l4.1,3.5l-4.1,3.5V9.3L32.5,9.3z M43.5,9.3v6.9
	l-4.1-3.5L43.5,9.3L43.5,9.3z M38,13.9l4,3.4h-8L38,13.9z M33.8,19.2h8.3l-4.2,4L33.8,19.2z M44.2,19.8l7.9,15.9h-1.2L39.3,24.5
	C39.3,24.5,44.2,19.8,44.2,19.8z M31.8,19.8l4.8,4.7L25.1,35.6h-1.2L31.8,19.8z M38,25.7l10.3,9.9H27.7L38,25.7z"/>
</svg>
