<?xml version="1.0" encoding="utf-8"?>
<!-- Generator: Adobe Illustrator 19.1.0, SVG Export Plug-In . SVG Version: 6.00 Build 0)  -->
<svg version="1.1" id="Capa_1" xmlns:sketch="http://www.bohemiancoding.com/sketch/ns"
	 xmlns="http://www.w3.org/2000/svg" xmlns:xlink="http://www.w3.org/1999/xlink" x="0px" y="0px" viewBox="-30.5 -39.6 100 100"
	 style="enable-background:new -30.5 -39.6 100 100;" xml:space="preserve">
<title>New Merchandise</title>
<desc>Created with Sketch.</desc>
<g sketch:type="MSPage">
	<g sketch:type="MSLayerGroup">
		<g sketch:type="MSShapeGroup">
			<path d="M-7.2-5.7h3v32.2h-3V-5.7L-7.2-5.7z M0.7-5.7h3v32.2h-3V-5.7L0.7-5.7z M43.3,26.3v-32h3v32
				C46.2,26.3,43.3,26.3,43.3,26.3L43.3,26.3z M6.7-5.7h7.4v32.2H6.7V-5.7L6.7-5.7z M18.1-5.7h1.5v32.2h-1.5V-5.7L18.1-5.7z
				 M40.3-5.7h1.5v31.8h-1.5V-5.7L40.3-5.7z M29-5.7h1.5v31.8H29V-5.7L29-5.7z M20.6-5.7h4.4v32.2h-4.4V-5.7L20.6-5.7z M32.9-5.7
				h4.4v32c0,0-1.5,0-1.5,0c-1,0-2.7,0-3,0V-5.7L32.9-5.7z"/>
		</g>
	</g>
</g>
</svg>
