<?xml version="1.0" encoding="utf-8"?>
<!-- Generator: Adobe Illustrator 19.1.0, SVG Export Plug-In . SVG Version: 6.00 Build 0)  -->
<svg version="1.1" id="Capa_1" xmlns="http://www.w3.org/2000/svg" xmlns:xlink="http://www.w3.org/1999/xlink" x="0px" y="0px"
	 viewBox="-429 230.5 100 100" style="enable-background:new -429 230.5 100 100;" xml:space="preserve">
<g>
	<g>
		<g>
			<rect x="-411.6" y="298.1" width="65.1" height="1.3"/>
		</g>
	</g>
	<g>
		<g>
			<g>
				<path d="M-386,296.8h-9.2v-19.2h9.2V296.8z M-393.9,295.5h6.5v-16.5h-6.5V295.5L-393.9,295.5z"/>
			</g>
			<g>
				<path d="M-397.7,296.8h-9.2v-28.9h9.2L-397.7,296.8L-397.7,296.8z M-405.5,295.5h6.5v-26.3h-6.5V295.5z"/>
			</g>
			<g>
				<path d="M-374.4,296.8h-9.2v-32.2h9.2V296.8z M-382.3,295.5h6.5v-29.6h-6.5V295.5L-382.3,295.5z"/>
			</g>
			<g>
				<path d="M-362.8,296.8h-9.2v-26h9.2V296.8L-362.8,296.8z M-370.6,295.5h6.5v-23.4h-6.5L-370.6,295.5L-370.6,295.5z"/>
			</g>
			<g>
				<path d="M-351.2,296.8h-9.2v-35.3h9.2V296.8z M-359,295.5h6.5v-32.6h-6.5V295.5z"/>
			</g>
		</g>
	</g>
</g>
</svg>
