<?xml version="1.0" encoding="utf-8"?>
<!-- Generator: Adobe Illustrator 19.1.0, SVG Export Plug-In . SVG Version: 6.00 Build 0)  -->
<svg version="1.1" id="Capa_1" xmlns="http://www.w3.org/2000/svg" xmlns:xlink="http://www.w3.org/1999/xlink" x="0px" y="0px"
	 viewBox="40 -39.5 100 100" style="enable-background:new 40 -39.5 100 100;" xml:space="preserve">
<g>
	<path d="M115,11.6c-3.7,0-6.7,3-6.7,6.7s3,6.7,6.7,6.7s6.7-3,6.7-6.7S118.7,11.6,115,11.6z M115,24.1c-3.2,0-5.8-2.6-5.8-5.8
		c0-3.2,2.6-5.8,5.8-5.8s5.8,2.6,5.8,5.8C120.8,21.5,118.2,24.1,115,24.1z"/>
	<path d="M115,14.8c-1.9,0-3.5,1.6-3.5,3.5c0,1.9,1.6,3.5,3.5,3.5c1.9,0,3.5-1.6,3.5-3.5C118.5,16.3,116.9,14.8,115,14.8z M115,20.9
		c-1.4,0-2.6-1.2-2.6-2.6c0-1.4,1.2-2.6,2.6-2.6c1.4,0,2.6,1.2,2.6,2.6C117.6,19.7,116.4,20.9,115,20.9z"/>
	<path d="M61.7,14.8c-1.9,0-3.5,1.6-3.5,3.5c0,1.9,1.6,3.5,3.5,3.5s3.5-1.6,3.5-3.5C65.2,16.3,63.6,14.8,61.7,14.8z M61.7,20.9
		c-1.4,0-2.6-1.2-2.6-2.6c0-1.4,1.2-2.6,2.6-2.6c1.4,0,2.6,1.2,2.6,2.6C64.3,19.7,63.1,20.9,61.7,20.9z"/>
	<path d="M61.7,11.6c-3.7,0-6.7,3-6.7,6.7s3,6.7,6.7,6.7c3.7,0,6.7-3,6.7-6.7S65.4,11.6,61.7,11.6z M61.7,24.1
		c-3.2,0-5.8-2.6-5.8-5.8c0-3.2,2.6-5.8,5.8-5.8s5.8,2.6,5.8,5.8C67.5,21.5,64.9,24.1,61.7,24.1z"/>
	<path d="M92.8-1.6c-0.3,0-0.7,0-1.2,0.1c-0.2,0-0.5,0.1-0.9,0.1c-2,0.2-5.3,0.5-7.2,1.5c-2.1,1.1-11.9,5.8-12,5.9
		c-0.2,0.1-0.3,0.3-0.3,0.5c0.1,0.2,0.2,0.4,0.5,0.4c0,0,0,0,0,0c0.7,0,17-0.7,18.7-0.8c2-0.1,2.5-0.8,2.9-2.6
		c0.2-0.9,0.4-1.7,0.5-2.4c0.1-0.6,0.2-1.1,0.3-1.4c0.1-0.3,0-0.6-0.2-0.8C93.8-1.6,93.3-1.6,92.8-1.6z M93.3-0.6
		c-0.1,0.3-0.2,0.8-0.3,1.3c-0.1,0.6-0.3,1.4-0.5,2.4c-0.3,1.6-0.5,1.8-2,1.9C89.1,5.1,78.7,5.5,74,5.7c3-1.5,8.4-4.1,9.9-4.9
		c1.8-0.9,5-1.2,6.9-1.4c0.3,0,0.6-0.1,0.9-0.1c0.5-0.1,0.8-0.1,1.1-0.1C93.1-0.7,93.2-0.6,93.3-0.6C93.3-0.6,93.3-0.6,93.3-0.6z"/>
	<path d="M134.7,11.8c-0.4-1.3-0.8-2.6-1.3-3.3c-0.1-0.1-0.3-0.4-0.4-2.3c0-0.1,0-0.1,0-0.2c0,0,0-0.1,0-0.2c0-0.4,0.1-1.3-0.5-2.1
		c-0.6-1-1.9-1.5-3.7-1.6c-3.5-0.2-4.6-0.2-4.8-0.3c-0.9-0.4-8.3-3.5-11.5-4.3l-3.1-0.8c0-0.1-0.1-0.1-0.1-0.2
		c-0.1-0.3-0.5-0.6-1.1-0.6c-0.2,0-0.5,0-0.8,0.1c-0.6,0.2-1,0.3-1.1,0.3c-0.7-0.1-4.7-0.4-9.4-0.4c-2.2,0-4.3,0.1-6.1,0.2
		C84.1-3.2,81.4-2,79.1-0.8c-0.2,0.1-0.4,0.2-0.6,0.3c-2.3,1.1-8.3,4.2-9.1,4.6c-0.9,0.1-8.2,0.8-10.9,1.1C56,5.5,53.9,5.9,52,6.6
		c-3,1.1-5,2.6-6,4.5c0,0,0,0,0,0c-0.5,1-0.8,2.6-0.7,3.8c0.1,1.3,0.2,2.4,0.3,2.8c0,0-0.1,0.1-0.1,0.1c-0.1,0.1-0.2,0.2-0.3,0.4
		c-0.1,0.1-0.4,0.6-0.2,1c0.2,0.6,1,0.9,2.6,1.2c2.4,0.5,4.6,0.5,6,0.6c0,0,0,0,0,0c0.1,0,0.3-0.1,0.4-0.2c0.1-0.1,0.1-0.3,0.1-0.4
		c-0.2-0.7-0.3-1.4-0.3-2.1c0-4.3,3.5-7.8,7.8-7.8s7.8,3.5,7.8,7.8c0,0.7-0.1,1.3-0.2,2c0,0.1,0,0.3,0.1,0.4
		c0.1,0.1,0.2,0.2,0.4,0.2h37.4c0.1,0,0.3-0.1,0.4-0.2c0.1-0.1,0.1-0.3,0.1-0.4c-0.2-0.6-0.2-1.3-0.2-2c0-4.3,3.5-7.8,7.8-7.8
		c4.3,0,7.8,3.5,7.8,7.8c0,0.2,0,0.3,0,0.5c0,0.1,0,0.3,0.1,0.4c0.1,0.1,0.2,0.1,0.4,0.1c4-0.4,9-0.9,9.8-1c0.5,0,0.9-0.3,1.2-0.8
		C135.3,16.2,135,12.9,134.7,11.8z M133.6,17.1c-0.2,0.3-0.4,0.3-0.5,0.4c-0.8,0.1-5.4,0.5-9.3,0.9c0-4.8-3.9-8.7-8.7-8.7
		c-4.8,0-8.7,3.9-8.7,8.7c0,0.5,0,1.1,0.1,1.6H70.2c0.1-0.5,0.1-1.1,0.1-1.6c0-4.8-3.9-8.7-8.7-8.7c-4.8,0-8.7,3.9-8.7,8.7
		c0,0.6,0.1,1.2,0.2,1.7c-1.3,0-3.2-0.1-5.2-0.5c-1.6-0.3-1.9-0.6-1.9-0.7c0,0,0-0.1,0.1-0.2c0.1-0.1,0.2-0.2,0.2-0.3
		c0.2-0.2,0.4-0.5,0.3-0.9c-0.1-0.3-0.2-1.3-0.3-2.6c-0.1-1.2,0.2-2.6,0.6-3.4c1.9-3.8,8.1-5,11.6-5.4C61.5,5.8,69.5,5,69.6,5
		c0.1,0,0.1,0,0.2-0.1c0.1,0,6.7-3.5,9.1-4.6c0.2-0.1,0.4-0.2,0.6-0.3c2.3-1.1,4.8-2.3,11.4-2.8c1.8-0.2,3.8-0.2,6-0.2
		c5,0,9.3,0.4,9.4,0.4c0.1,0,0.1,0,0.2,0c0,0,0.3-0.1,1.2-0.3c0.2-0.1,0.4-0.1,0.5-0.1c0.2,0,0.3,0.1,0.3,0.1
		c0.1,0.2,0.1,0.3,0.1,0.3c0,0.2,0.2,0.3,0.3,0.3l3.4,0.9c3.3,0.9,11.3,4.3,11.4,4.3c0.1,0,0.1,0,0.2,0c0,0,0.7,0,4.9,0.3
		c3.4,0.2,3.4,1.9,3.3,2.7c0,0.1,0,0.2,0,0.2c0,0,0,0.1,0,0.2c0,1.2,0.1,2.3,0.6,2.9c0.4,0.5,0.8,1.9,1.1,2.9
		C134,13.1,134.3,16,133.6,17.1z"/>
</g>
</svg>
