<?xml version="1.0" encoding="utf-8"?>
<!-- Generator: Adobe Illustrator 19.1.0, SVG Export Plug-In . SVG Version: 6.00 Build 0)  -->
<svg version="1.1" id="Capa_1" xmlns="http://www.w3.org/2000/svg" xmlns:xlink="http://www.w3.org/1999/xlink" x="0px" y="0px"
	 viewBox="-471 230.8 100 100" style="enable-background:new -471 230.8 100 100;" xml:space="preserve">
<g>
	<path d="M-399.6,288.2c0.4-1.6,0.6-3.3,0.6-4.9c0-7.7-3.9-14.7-10.5-18.7c-0.4-0.2-0.9-0.1-1.2,0.3c-0.2,0.4-0.1,0.9,0.3,1.2
		c6.1,3.7,9.7,10.2,9.7,17.3c0,1.5-0.2,2.9-0.5,4.3c-0.4-0.1-0.8-0.1-1.2-0.1c-3.3,0-5.9,2.7-5.9,5.9s2.7,5.9,5.9,5.9
		c3.3,0,5.9-2.7,5.9-5.9C-396.5,291.2-397.8,289.2-399.6,288.2z M-402.4,297.6c-2.3,0-4.2-1.9-4.2-4.2s1.9-4.2,4.2-4.2
		s4.2,1.9,4.2,4.2S-400.1,297.6-402.4,297.6z"/>
	<path d="M-413.3,302c-2.5,1-5.1,1.5-7.7,1.5c-5.4,0-10.6-2.2-14.4-6c1.1-1.1,1.7-2.5,1.7-4.1c0-3.3-2.7-5.9-5.9-5.9
		c-3.3,0-5.9,2.7-5.9,5.9s2.7,5.9,5.9,5.9c1,0,2-0.3,2.9-0.7c4.1,4.2,9.8,6.7,15.7,6.7c2.9,0,5.7-0.6,8.4-1.7
		c0.4-0.2,0.6-0.7,0.5-1.1C-412.3,302.1-412.8,301.8-413.3,302z M-443.8,293.4c0-2.3,1.9-4.2,4.2-4.2s4.2,1.9,4.2,4.2
		s-1.9,4.2-4.2,4.2S-443.8,295.8-443.8,293.4z"/>
	<path d="M-442.1,282.6C-442.1,282.6-442.1,282.6-442.1,282.6c0.5,0,0.9-0.3,0.9-0.8c0.6-8.5,6.4-15.6,14.5-18
		c0.7,2.5,3,4.2,5.7,4.2c3.3,0,5.9-2.7,5.9-5.9s-2.7-5.9-5.9-5.9c-3.3,0-5.9,2.6-5.9,5.9c-8.9,2.5-15.3,10.3-16,19.6
		C-442.9,282.2-442.6,282.6-442.1,282.6z M-421,257.9c2.3,0,4.2,1.9,4.2,4.2s-1.9,4.2-4.2,4.2s-4.2-1.9-4.2-4.2
		S-423.3,257.9-421,257.9z"/>
</g>
</svg>
