<?xml version="1.0" encoding="utf-8"?>
<!-- Generator: Adobe Illustrator 19.1.0, SVG Export Plug-In . SVG Version: 6.00 Build 0)  -->
<svg version="1.1" id="Capa_1" xmlns="http://www.w3.org/2000/svg" xmlns:xlink="http://www.w3.org/1999/xlink" x="0px" y="0px"
	 viewBox="68 -40 100 100" style="enable-background:new 68 -40 100 100;" xml:space="preserve">
<g>
	<g>
		<path d="M126.5,35.4h-31c-0.4,0-0.8-0.4-0.8-0.8v-4.3c0-0.4,0.4-0.8,0.8-0.8h31c0.4,0,0.8,0.4,0.8,0.8v4.3
			C127.3,35.1,126.9,35.4,126.5,35.4z M96.3,33.8h29.4v-2.7H96.3V33.8z"/>
	</g>
	<g>
		<path d="M112.3,31.1h-9.9c-0.4,0-0.8-0.4-0.8-0.8v-44.9c0-0.4,0.4-0.8,0.8-0.8h9.9c0.4,0,0.8,0.4,0.8,0.8v44.9
			C113.1,30.7,112.7,31.1,112.3,31.1z M103.2,29.5h8.3v-43.3h-8.3V29.5z"/>
	</g>
	<g>
		<path d="M140.5-6h-45c-0.4,0-0.8-0.4-0.8-0.8v-3.8c0-0.4,0.4-0.8,0.8-0.8h45.1c0.4,0,0.8,0.4,0.8,0.8v3.8
			C141.3-6.4,140.9-6,140.5-6z M96.3-7.6h43.5v-2.2H96.3V-7.6z"/>
	</g>
	<g>
		<path d="M138.4-0.7h-4.8c-0.4,0-0.8-0.4-0.8-0.8v-5.3c0-0.4,0.4-0.8,0.8-0.8h4.8c0.4,0,0.8,0.4,0.8,0.8v5.2
			C139.2-1.1,138.8-0.7,138.4-0.7z M134.4-2.3h3.2V-6h-3.2V-2.3z"/>
	</g>
	<g>
		<path d="M136,15.2c-0.4,0-0.8-0.4-0.8-0.8V-1.5c0-0.4,0.4-0.8,0.8-0.8s0.8,0.4,0.8,0.8v15.9C136.8,14.8,136.4,15.2,136,15.2z"/>
	</g>
	<g>
		<path d="M136,27.5c-0.7,0-1.4-0.2-2-0.7c0,0-0.1-0.1-0.2-0.2c-0.8-1-1-2.3-0.4-3.3c0.4-0.8,1-1.3,1.8-1.5v-2.4
			c0-0.4,0.4-0.8,0.8-0.8s0.8,0.4,0.8,0.8v3.1c0,0.4-0.4,0.8-0.8,0.8c-0.5,0-1,0.3-1.2,0.7c-0.2,0.5-0.2,1,0.2,1.6
			c0.5,0.4,1.1,0.4,1.6,0.2c0.4-0.2,0.7-0.7,0.7-1.2c0-0.4,0.4-0.8,0.8-0.8s0.8,0.4,0.8,0.8c0,1.1-0.6,2.1-1.6,2.6
			C136.9,27.4,136.4,27.5,136,27.5z"/>
	</g>
	<g>
		<path d="M112.3,30.7c-0.1,0-0.2,0-0.3-0.2l-9.8-12.4c-0.1-0.2-0.1-0.4,0.1-0.6c0.2-0.1,0.4-0.1,0.6,0.1l9.8,12.4
			c0.1,0.2,0.1,0.4-0.1,0.6C112.5,30.7,112.4,30.7,112.3,30.7z"/>
	</g>
	<g>
		<path d="M102.4,30.7c-0.1,0-0.2,0-0.2-0.1c-0.2-0.1-0.2-0.4-0.1-0.6l9.9-12.4c0.1-0.2,0.4-0.2,0.6-0.1c0.2,0.1,0.2,0.4,0.1,0.6
			l-9.9,12.4C102.7,30.7,102.6,30.7,102.4,30.7z"/>
	</g>
	<g>
		<path d="M112.3,18.3c-0.1,0-0.2,0-0.3-0.2l-9.8-12.4c-0.1-0.2-0.1-0.4,0.1-0.6c0.2-0.1,0.4-0.1,0.6,0.1l9.8,12.4
			c0.1,0.2,0.1,0.4-0.1,0.6C112.5,18.3,112.4,18.3,112.3,18.3z"/>
	</g>
	<g>
		<path d="M102.4,18.3c-0.1,0-0.2,0-0.2-0.1c-0.2-0.1-0.2-0.4-0.1-0.6L112,5.3c0.1-0.2,0.4-0.2,0.6-0.1c0.2,0.1,0.2,0.4,0.1,0.6
			l-9.9,12.4C102.7,18.3,102.6,18.3,102.4,18.3z"/>
	</g>
	<g>
		<path d="M112.3,6c-0.1,0-0.2,0-0.3-0.2l-9.8-12.4C102-6.7,102-7,102.2-7.1c0.2-0.1,0.4-0.1,0.6,0.1l9.8,12.4
			c0.1,0.2,0.1,0.4-0.1,0.6C112.5,5.9,112.4,6,112.3,6z"/>
	</g>
	<g>
		<path d="M102.4,6c-0.1,0-0.2,0-0.2-0.1c-0.2-0.1-0.2-0.4-0.1-0.6L112-7.1c0.1-0.2,0.4-0.2,0.6-0.1c0.2,0.1,0.2,0.4,0.1,0.6
			l-9.9,12.4C102.7,5.9,102.6,6,102.4,6z"/>
	</g>
	<g>
		<path d="M138.1,20.2H134c-0.4,0-0.8-0.4-0.8-0.8v-4.9c0-0.4,0.4-0.8,0.8-0.8h4.1c0.4,0,0.8,0.4,0.8,0.8v4.9
			C138.9,19.9,138.5,20.2,138.1,20.2z M134.8,18.6h2.5v-3.3h-2.5V18.6z"/>
	</g>
</g>
</svg>
