<?xml version="1.0" encoding="utf-8"?>
<!-- Generator: Adobe Illustrator 19.1.0, SVG Export Plug-In . SVG Version: 6.00 Build 0)  -->
<svg version="1.1"
	 id="Capa_1" xmlns:svg="http://www.w3.org/2000/svg" xmlns:dc="http://purl.org/dc/elements/1.1/" xmlns:cc="http://creativecommons.org/ns#" xmlns:inkscape="http://www.inkscape.org/namespaces/inkscape" xmlns:rdf="http://www.w3.org/1999/02/22-rdf-syntax-ns#" xmlns:sodipodi="http://sodipodi.sourceforge.net/DTD/sodipodi-0.dtd"
	 xmlns="http://www.w3.org/2000/svg" xmlns:xlink="http://www.w3.org/1999/xlink" x="0px" y="0px" viewBox="-28 -40 100 100"
	 style="enable-background:new -28 -40 100 100;" xml:space="preserve">
<style type="text/css">
	.st0{fill:none;stroke:#000000;stroke-width:0.5;stroke-miterlimit:10;}
</style>
<g transform="translate(0,-1020.3622)">
	<g transform="translate(-342.16021,880.9582)">
		<g transform="translate(-0.84842647,-43.458202)">
			<g transform="translate(-46.734174,-0.58020543)">
				<path class="st0" d="M388.4,222.8v-27.9c0-0.7,0.4-1.3,0.9-1.6l6.5-3.8c0.2-0.1,0.2-0.3,0.2-0.4v-12.5c0-0.4-0.3-0.7-0.7-0.7
					h-4.1c0,0,0,0,0,0c0-1.6,1.3-2.8,3-2.8c0,0,0.1,0,0.1,0h1.6c0,0,0,0,0,0c0,0,0.1,0,0.1,0c1.5,0,2.8-1.3,2.8-2.9
					c0-1.5-1.1-2.7-2.5-2.8c-0.1,0-0.2,0-0.2,0h-6.7c0,0,0,0,0,0h-1c-0.5,0-1-0.4-1-1c0-0.5,0.4-1,1-1c0.5,0,1-0.4,1-0.9
					c0-0.5-0.4-1-0.9-1c0,0,0,0,0,0c-1.6,0-2.9,1.3-2.9,2.9c0,0.3,0.1,0.7,0.2,1h-0.9c0,0-0.1,0-0.1,0c0,0,0,0,0,0c0,0-0.1,0-0.1,0
					c-0.5,0-1-0.4-1-1c0-0.5,0.4-1,1-1c0.5,0,1-0.4,1-0.9c0-0.5-0.4-1-0.9-1c0,0,0,0,0,0v0c-1.6,0-2.9,1.3-2.9,2.9
					c0,1.6,1.3,2.9,2.9,2.9c0,0,0.1,0,0.1,0c0,0,0.1,0,0.1,0h3.6h0.1h0.9c0,0,0,0,0,0c0,0,0.1,0,0.1,0h6.6c0.5,0,1,0.4,1,1
					c0,0.5-0.4,1-1,1c0,0,0,0,0,0c0,0,0,0,0,0h-5.6c-0.1,0-0.2,0-0.3,0c-2.5,0.2-4.5,2.2-4.5,4.7c0,0,0,0,0,0h-2.3
					c-0.3,0-0.6,0.3-0.6,0.6v46.2c0,0.5,0.4,0.9,0.9,0.9l4,0C388,223.5,388.4,223.2,388.4,222.8z M390.3,172.9c-0.6,0.8-1,1.8-1,2.8
					c0,0,0,0,0,0h-1.9c0,0,0,0,0,0C387.4,174.2,388.7,173,390.3,172.9z M414.9,187.9l-10.8,6.4c-0.4,0.3-1-0.1-1-0.6l0-5.2
					c0-0.6-0.6-0.9-1.1-0.6l-11.1,6.6c-0.4,0.3-0.7,0.7-0.7,1.3v26.8c0,0.5,0.4,0.9,0.9,0.9l50.6,0v-34.2c0-0.9-1-1.5-1.8-1
					l-11.1,6.6v-6.6c0-0.4-0.5-0.7-0.9-0.5l-10.9,6.4c-0.5,0.3-1.2-0.1-1.2-0.7v-5C416,187.9,415.4,187.6,414.9,187.9z M396,200.6
					h5.7v5.7H396V200.6z M407.5,200.6h5.7v5.7h-5.7V200.6z M418.9,200.6h5.7v5.7h-5.7V200.6z M430.4,200.6h5.7v5.7h-5.7V200.6z
					 M396.3,212h5c0.2,0,0.4,0.2,0.4,0.4v4.9c0,0.2-0.2,0.4-0.4,0.4h-5c-0.2,0-0.3-0.1-0.3-0.3v-5.1C396,212.2,396.2,212,396.3,212z
					 M407.5,212h5.7v5.7h-5.7V212z M418.9,212h5.7v5.7h-5.7V212z M430.4,212h5.7v5.7h-5.7V212z"/>
			</g>
		</g>
	</g>
</g>
</svg>
