<?xml version="1.0" encoding="utf-8"?>
<!-- Generator: Adobe Illustrator 19.1.0, SVG Export Plug-In . SVG Version: 6.00 Build 0)  -->
<svg version="1.1"
	 id="Capa_1" xmlns:svg="http://www.w3.org/2000/svg" xmlns:dc="http://purl.org/dc/elements/1.1/" xmlns:cc="http://creativecommons.org/ns#" xmlns:inkscape="http://www.inkscape.org/namespaces/inkscape" xmlns:rdf="http://www.w3.org/1999/02/22-rdf-syntax-ns#" xmlns:sodipodi="http://sodipodi.sourceforge.net/DTD/sodipodi-0.dtd"
	 xmlns="http://www.w3.org/2000/svg" xmlns:xlink="http://www.w3.org/1999/xlink" x="0px" y="0px" viewBox="-28 -40 100 100"
	 style="enable-background:new -28 -40 100 100;" xml:space="preserve">
<g transform="translate(0,-1020.3622)">
	<path d="M10.3,1000.4C10.3,1000.4,10.3,1000.4,10.3,1000.4c-0.3,0-0.6,0.2-0.7,0.5c-0.5,0.9-1.5,1.4-2.5,1.4c0,0,0,0,0,0H2.2
		c-0.1,0-0.2,0-0.3,0c-1.3,0.2-2.4,1.4-2.4,2.8c0,1.5,1.3,2.8,2.8,2.8c0,0,0.1,0,0.1,0c0,0,0.1,0,0.1,0H7c0,0,0,0,0,0h6.5
		c0.5,0,0.9,0.4,0.9,0.9c0,0.5-0.4,0.9-0.9,0.9c0,0,0,0-0.1,0H8c-0.1,0-0.2,0-0.3,0h0c-2.4,0.2-4.4,2.2-4.4,4.6
		c0,0.5,0.4,0.9,0.9,0.9c0,0,0,0,0,0c0.5,0,0.9-0.4,0.9-0.9c0-1.5,1.2-2.7,2.8-2.8c-0.6,0.8-1,1.7-1,2.8c0,0.5,0.4,0.9,0.9,0.9
		c0,0,0,0,0,0c0.5,0,0.9-0.4,0.9-0.9c0-1.5,1.3-2.8,2.9-2.8h1.7c0,0,0,0,0,0c0,0,0,0,0,0c1.5,0,2.8-1.3,2.8-2.8
		c0-1.4-1.1-2.6-2.5-2.8c-0.1,0-0.2,0-0.2,0H7.1c0,0,0,0-0.1,0c0,0,0,0,0,0H6.1c-0.5,0-0.9-0.4-0.9-0.9c0-0.5,0.4-0.9,0.9-0.9H7
		c0,0,0,0,0,0h0c0.1,0,0.1,0,0.2,0c1.6-0.1,3.1-0.9,3.9-2.3c0.3-0.4,0.2-1-0.3-1.3C10.7,1000.5,10.5,1000.4,10.3,1000.4z
		 M2.4,1004.2h1.1c-0.1,0.3-0.2,0.6-0.2,0.9c0,0.3,0.1,0.6,0.2,0.9H2.6c0,0-0.1,0-0.1,0c0,0,0,0,0,0s0,0,0,0c0,0-0.1,0-0.1,0
		c-0.5,0-0.9-0.4-0.9-0.9C1.4,1004.6,1.8,1004.2,2.4,1004.2z M0.5,1017.3c-0.5,0-0.9,0.4-0.9,0.9c0,17.3-0.4,25.4-1,30.3
		c-0.6,4.8-1.5,6.4-2.7,10.6c-0.1,0.5,0.2,1,0.7,1.1c0.1,0,0.2,0,0.2,0h29.9h20.6c0.5,0,0.9-0.4,0.9-0.9c0-0.2,0-0.3-0.1-0.5
		c-1.4-2.3-2.2-3.7-2.8-7.8c-0.6-4.1-0.8-10.9-0.8-23.5c0-0.5-0.4-0.9-0.9-0.9H26.7c-0.5,0-0.9,0.4-0.9,0.9
		c0,11.4-0.2,17.9-0.7,22.1c-0.1-0.4-0.1-0.7-0.2-1.2c-0.6-4.8-1-13-1-30.3c0-0.5-0.4-0.9-0.9-0.9H0.5z M1.4,1019.1H22
		c0,1.4,0,2.4,0,3.7H1.4C1.4,1021.6,1.4,1020.5,1.4,1019.1z M1.4,1024.7h20.7c0.1,12.4,0.4,19.8,1,24c0.6,4.5,1.5,6.4,2.4,9.7H-2.1
		c1-3.3,1.9-5.2,2.4-9.7C1,1044.5,1.3,1037.2,1.4,1024.7z M27.6,1028.5h15c0,1.3,0,2.4,0,3.6H27.6
		C27.6,1030.9,27.6,1029.9,27.6,1028.5z M27.6,1034h15.1c0.1,8.4,0.3,13.9,0.8,17.3c0.5,3.4,1.3,5.3,2.3,7.1H27.4
		c-0.4-1.5-0.8-2.8-1.2-4c0-0.1,0-0.1,0.1-0.2C27.1,1050.8,27.5,1045,27.6,1034z"/>
</g>
</svg>
