<?xml version="1.0" encoding="utf-8"?>
<!-- Generator: Adobe Illustrator 19.1.0, SVG Export Plug-In . SVG Version: 6.00 Build 0)  -->
<svg version="1.1" id="Capa_1" xmlns="http://www.w3.org/2000/svg" xmlns:xlink="http://www.w3.org/1999/xlink" x="0px" y="0px"
	 viewBox="-429 231 100 100" style="enable-background:new -429 231 100 100;" xml:space="preserve">
<g>
	<path d="M-359,256h-8c-0.4,0-0.7,0.3-0.8,0.7l-4,40.2c0,0.1,0.1,0.2,0.1,0.2l1.2,0.1c0.1,0,0.2-0.1,0.2-0.1l3.9-38.9
		c0-0.4,0.4-0.7,0.8-0.7h5.3c0.4,0,0.7,0.3,0.8,0.7l3.8,45.4c0,0.5-0.3,0.8-0.8,0.8h-45.3c-0.4,0-0.8-0.3-0.8-0.8v-14
		c0-0.2,0.1-0.4,0.2-0.5l9.1-9.1c0.5-0.5,1.3-0.1,1.3,0.5v8.5c0,0.7,0.8,1,1.3,0.5l9.5-9.5c0.5-0.5,1.3-0.1,1.3,0.5v8.4
		c0,0.4,0.3,0.8,0.8,0.8h3.9c0.1,0,0.2-0.1,0.2-0.2v-1.2c0-0.1-0.1-0.2-0.2-0.2h-2.4c-0.4,0-0.8-0.3-0.8-0.8V277
		c0-0.7-0.8-1-1.3-0.5l-9.5,9.5c-0.5,0.5-1.3,0.1-1.3-0.5V277c0-0.7-0.8-1-1.3-0.5l-12.1,12.1c-0.1,0.1-0.2,0.3-0.2,0.5v16.1
		c0,0.4,0.3,0.8,0.8,0.8h48.5c0.5,0,0.8-0.4,0.8-0.8l-4-48.5C-358.2,256.3-358.6,256-359,256z"/>
</g>
</svg>
