<?xml version="1.0" encoding="utf-8"?>
<!-- Generator: Adobe Illustrator 19.1.0, SVG Export Plug-In . SVG Version: 6.00 Build 0)  -->
<svg version="1.1" id="Capa_1" xmlns="http://www.w3.org/2000/svg" xmlns:xlink="http://www.w3.org/1999/xlink" x="0px" y="0px"
	 viewBox="-269 191 100 100" style="enable-background:new -269 191 100 100;" xml:space="preserve">
<style type="text/css">
	.st0{fill:none;stroke:#333333;stroke-miterlimit:10;}
</style>
<g>
	<g>
		<path class="st0" d="M-191.5,276.7l3.3-7.1c0.2-0.3,0.2-0.7,0-1l-1.5-3.9l2.5-4.2c0.4-0.6,0.1-1.3-0.4-1.6
			c-0.5-0.3-1.3-0.1-1.6,0.4l-1.5,2.5l-10.2-26.7l8.9-20.3c0.5-0.9,0.6-1.8,0.4-2.7c-0.1-0.4-0.4-0.9-0.6-1.3l2.7-4.6
			c0.4-0.6,0.1-1.3-0.4-1.6s-1.3-0.1-1.6,0.4l-2.7,4.7c-0.5-0.1-1-0.1-1.4,0.1c-0.8,0.2-1.6,0.8-2.1,1.7l-13.4,17.8l-27.8,4.8
			l1.6-2.8c0.4-0.6,0.1-1.3-0.4-1.6c-0.6-0.4-1.3-0.1-1.6,0.4l-2.7,4.6l-3.4,0.5c-0.4,0-0.6,0.2-0.7,0.5l-4.6,6.6
			c-0.2,0.3-0.3,0.7-0.1,1.2c0.1,0.4,0.5,0.7,0.9,0.8l26.1,6l-1.1,2.7l-14.1,1.8c-0.5,0.1-1,0.5-1,1l-0.6,3.4
			c-0.1,0.6,0.4,1.4,1,1.4l10.6,1.8l-0.4,0.9c-0.7,1.1-0.8,2.4-0.4,3.6c0.3,1.1,1,2.2,2.2,2.9c1.1,0.7,2.4,0.8,3.6,0.4
			c1.1-0.3,2.2-1,2.9-2.2l0.6-0.8l6.8,8.4c0,0.1,0.2,0.2,0.3,0.3c0.4,0.3,1,0.2,1.4-0.1l2.6-2.2c0.4-0.3,0.6-1,0.4-1.4l-5.5-13.1
			l1.9-2.4l19.4,20.4c0.1,0.1,0.1,0.2,0.3,0.3l0,0c0.6,0.4,1.3,0.1,1.6-0.4C-191.5,276.9-191.5,276.8-191.5,276.7z M-224.4,266.4
			c-0.4,0.6-1.1,0.7-1.6,0.4c-0.5-0.3-0.7-1.1-0.4-1.6l7-12c0.4-0.6,1.1-0.7,1.6-0.4s0.7,1.1,0.4,1.6L-224.4,266.4z"/>
	</g>
</g>
</svg>
