<?xml version="1.0" encoding="utf-8"?>
<!-- Generator: Adobe Illustrator 19.1.0, SVG Export Plug-In . SVG Version: 6.00 Build 0)  -->
<svg version="1.1" id="Capa_1" xmlns="http://www.w3.org/2000/svg" xmlns:xlink="http://www.w3.org/1999/xlink" x="0px" y="0px"
	 viewBox="-429 230.5 100 100" style="enable-background:new -429 230.5 100 100;" xml:space="preserve">
<g>
	<g>
		<g>
			<rect x="-412.9" y="298.9" width="67.8" height="1.4"/>
		</g>
	</g>
	<g>
		<g>
			<g>
				<path d="M-386.3,297.5h-9.6v-20h9.6V297.5z M-394.5,296.1h6.8v-17.2h-6.8V296.1L-394.5,296.1z"/>
			</g>
			<g>
				<path d="M-398.4,297.5h-9.6v-30.1h9.6L-398.4,297.5L-398.4,297.5z M-406.6,296.1h6.8v-27.4h-6.8V296.1z"/>
			</g>
			<g>
				<path d="M-374.2,297.5h-9.6v-33.6h9.6V297.5z M-382.4,296.1h6.8v-30.8h-6.8L-382.4,296.1L-382.4,296.1z"/>
			</g>
			<g>
				<path d="M-362.1,297.5h-9.6v-27.1h9.6V297.5L-362.1,297.5z M-370.3,296.1h6.8v-24.3h-6.8L-370.3,296.1L-370.3,296.1z"/>
			</g>
			<g>
				<path d="M-350,297.5h-9.6v-36.7h9.6V297.5z M-358.2,296.1h6.8v-34h-6.8V296.1z"/>
			</g>
		</g>
	</g>
</g>
</svg>
