<?xml version="1.0" encoding="utf-8"?>
<!-- Generator: Adobe Illustrator 19.1.0, SVG Export Plug-In . SVG Version: 6.00 Build 0)  -->
<svg version="1.1" id="Capa_1" xmlns="http://www.w3.org/2000/svg" xmlns:xlink="http://www.w3.org/1999/xlink" x="0px" y="0px"
	 viewBox="68 -40 100 100" style="enable-background:new 68 -40 100 100;" xml:space="preserve">
<g>
	<path d="M119,0.1c1,0,1.9-0.9,1.9-1.9S120-3.7,119-3.7s-1.9,0.9-1.9,1.9S117.9,0.1,119,0.1z M119-2.8c0.6,0,1,0.5,1,1s-0.5,1-1,1
		s-1-0.5-1-1C117.9-2.3,118.4-2.8,119-2.8z"/>
	<path d="M94.1,8c-0.7,0-1.4,0.6-1.4,1.4s0.6,1.4,1.4,1.4s1.4-0.6,1.4-1.4S95,8,94.1,8z M94.1,9.9c-0.3,0-0.6-0.2-0.6-0.6
		s0.2-0.6,0.6-0.6c0.3,0,0.6,0.2,0.6,0.6S94.5,9.9,94.1,9.9z"/>
	<path d="M136.8,42.2h-4.6l-0.2-0.7l-3.6-17.8l-0.1-0.6l-2.5-12.7l-1.4-7.1c0.1-0.1,0.1-0.1,0.1-0.2c0-0.1-0.1-0.2-0.2-0.3L123.1-3
		l13.5-6l4.6,10.8c0.1,0.2,0.3,0.5,0.6,0.5c0.1,0.1,0.2,0.1,0.4,0.1c0.1,0,0.3,0,0.4-0.1l0.4-0.2v29.1c0,0.2,0.2,0.4,0.4,0.4
		s0.4-0.2,0.4-0.4V1.8l0.9-0.4c0.3-0.2,0.6-0.5,0.6-0.9l0,0l0.6-6.8c0-0.1,0-0.1-0.1-0.2l-4.9-11.6c-0.1-0.2-0.2-0.3-0.3-0.4
		l-5.1-4.3c-0.3-0.2-0.7-0.3-1-0.2l-2.2,0.9c-0.2,0.1-0.5,0.3-0.5,0.6c-0.1,0.2-0.1,0.5,0,0.7l4.6,10.8l-13.4,6l-1-4.8
		c-0.2-0.7-0.8-1.3-1.6-1.3h-3.1c-0.7,0-1.4,0.5-1.6,1.3L114,0.1l-13.5,6.1l-0.7-1.6c-0.1-0.2-0.3-0.4-0.6-0.5C99,4,98.8,4,98.5,4.1
		l-8,3.5c-0.2,0.1-0.4,0.3-0.5,0.6c-0.1,0.2-0.1,0.5,0,0.7l1.8,4c0.1,0.2,0.3,0.4,0.6,0.5c0.1,0,0.1,0.1,0.2,0.1V26h-2.9
		c-0.5,0-1,0.5-1,1v8.9c0,0.5,0.5,1,1,1h6.6c0.5,0,1-0.5,1-1v-8.9c0-0.5-0.5-1-1-1h-2.9V13.3l7.7-3.4c0.5-0.2,0.7-0.8,0.5-1.3
		l-0.7-1.6l13-5.8l-1.8,9.3l-2.5,12.7l-0.1,0.6l-3.6,17.8l0,0l-0.2,0.7h-4.6c-0.2,0-0.4,0.2-0.4,0.4s0.2,0.4,0.4,0.4h4.9h25.9h4.9
		c0.2,0,0.4-0.2,0.4-0.4S137.1,42.2,136.8,42.2z M132.6-21.1c0,0,0.1-0.1,0.1-0.1l2.2-0.9h0.1c0.1,0,0.1,0,0.1,0.1l5.1,4.3l0.1,0.1
		l4.8,11.5l-0.6,6.7c0,0.1-0.1,0.1-0.1,0.1l-1.2,0.5l0,0l-1,0.4c-0.1,0-0.1,0-0.1,0S142,1.4,142,1.4L132.6-21
		C132.6-21.1,132.6-21.1,132.6-21.1z M96.4,27.1v8.9c0,0.1-0.1,0.1-0.1,0.1h-6.6c-0.1,0-0.1-0.1-0.1-0.1v-8.9c0-0.1,0.1-0.1,0.1-0.1
		h6.6C96.3,26.9,96.4,26.9,96.4,27.1z M100.7,9.1l-8,3.5c-0.1,0-0.1,0-0.1,0s-0.1,0-0.1-0.1l-1.8-4c0-0.1,0-0.1,0-0.1s0-0.1,0.1-0.1
		l8-3.5h0.1h0.1c0,0,0.1,0,0.1,0.1l0.9,2l0,0l0,0l0.9,2C100.8,9,100.8,9.1,100.7,9.1z M112.7,11.3l5.6,4.6l-7.7,6.3L112.7,11.3z
		 M114.3,3.5h9.4l1.4,6.8l-6,5l-6-5L114.3,3.5z M127.4,22.1l-7.8-6.3l5.6-4.6L127.4,22.1z M119,16.3l8.6,7l0.1,0.2l-1.7,1.4l-7,5.7
		l-8.7-7l0.1-0.2L119,16.3z M110,24.5l8.2,6.7l-11.4,9.3L110,24.5z M119.6,31.2l8.2-6.7l3.2,16L119.6,31.2z M116.7-8.6
		c0.1-0.3,0.4-0.6,0.7-0.6h3.1c0.3,0,0.7,0.2,0.7,0.6l2.2,11.2h-9L116.7-8.6z M106.5,42.2l0.1-0.5l12.3-10l12.3,10l0.1,0.5H106.5z"
		/>
	<path d="M147.3,34.3v-2.8c0-0.2-0.2-0.4-0.4-0.4s-0.4,0.2-0.4,0.4v2.3h-6.1v-2.3c0-0.2-0.2-0.4-0.4-0.4s-0.4,0.2-0.4,0.4v2.8
		c0,0.2,0.2,0.4,0.4,0.4h7C147.1,34.7,147.3,34.5,147.3,34.3z"/>
</g>
</svg>
