<?xml version="1.0" encoding="utf-8"?>
<!-- Generator: Adobe Illustrator 19.1.0, SVG Export Plug-In . SVG Version: 6.00 Build 0)  -->
<svg version="1.1" id="Capa_1" xmlns="http://www.w3.org/2000/svg" xmlns:xlink="http://www.w3.org/1999/xlink" x="0px" y="0px"
	 viewBox="40 -39.5 100 100" style="enable-background:new 40 -39.5 100 100;" xml:space="preserve">
<style type="text/css">
	.st0{fill:none;stroke:#000000;stroke-miterlimit:10;}
</style>
<path class="st0" d="M70,15.5c-0.7-2.2,0-4.7,1.6-6.3c3.4-3.4,8.6-2.2,10.5,1.7l0,0c1.6,3.2,0.2,7.1-3,8.7
	C75.6,21.2,71.2,19.5,70,15.5z M86.5,18.4c-0.4-0.5-1.2-0.4-1.5,0.2c-1,1.8-2.4,3.2-4.3,4.1c-2,1-4.1,1.2-6.2,0.8
	c-0.5-0.1-1,0.4-0.7,0.9l5.5,11.2H59.9c-0.4,0-0.7,0.3-0.7,0.7V45c0,0.4,0.3,0.7,0.7,0.7h58.4c0.5,0,0.9-0.4,0.9-0.9v-8.5
	c0-0.3-0.3-0.6-0.6-0.6h-17c-0.3,0-0.7-0.1-0.9-0.4L86.5,18.4z M84.2,7.4L84.2,7.4c0.8,0.9,1.3,1.9,1.6,3c0.1,0.3,0.4,0.3,0.6,0.1
	l14.7-17.1c-1.6,0.5-3.5,0.1-4.6-1.3c-0.9-1.2-1.2-2.7-0.7-4.1c0-0.1-0.1-0.2-0.1-0.1L76.4,3.4c-0.1,0.1,0,0.3,0.1,0.3
	C79.4,3.7,82.2,4.9,84.2,7.4z M105.1-14.8l1.7-5l8.4-1.4c0.9-0.2,1.5-1,1.4-2c-0.2-0.9-1-1.5-2-1.4l-9.4,1.6
	c-0.7,0.1-1.2,0.7-1.4,1.3l-1.2,3.5l-3.1,1c-0.6,0.2-0.9,0.8-0.7,1.4l0,0.1c0.1,0.4,0.5,0.7,0.9,0.7c1.8,0,3.5,1.1,4,2.8
	c0.6,1.7-0.1,3.5-1.4,4.6c-0.4,0.3-0.6,0.8-0.4,1.3v0c0.1,0.4,0.6,0.6,1,0.5l3.6-1.2l2.9,2c0.5,0.5,1.3,0.6,1.9,0.3l8.5-4.3
	c1-0.3,1.3-1.4,0.9-2.2s-1.4-1.2-2.3-0.8L110.7-8l-4.3-3L105.1-14.8z M101.9-12.4c-0.9-1.2-2.7-1.4-3.9-0.4
	c-1.2,0.9-1.4,2.7-0.4,3.9c0.9,1.2,2.7,1.4,3.9,0.4C102.7-9.4,102.9-11.2,101.9-12.4L101.9-12.4"/>
</svg>
