<?xml version="1.0" encoding="utf-8"?>
<!-- Generator: Adobe Illustrator 19.1.0, SVG Export Plug-In . SVG Version: 6.00 Build 0)  -->
<svg version="1.1" id="Capa_1" xmlns="http://www.w3.org/2000/svg" xmlns:xlink="http://www.w3.org/1999/xlink" x="0px" y="0px"
	 viewBox="-505 230.2 100 100" style="enable-background:new -505 230.2 100 100;" xml:space="preserve">
<path d="M-471.2,281c2.6,2.6,6.3,3.9,10,3.4c1.5-0.2,3.1,0.4,4.3,1.6l12.2,12.2c1.1,1.1,2.5,1.6,3.9,1.6c1.4,0,2.8-0.5,3.9-1.6
	c2.1-2.1,2.1-5.6,0-7.7l-12.2-12.2c-1.2-1.2-1.8-2.8-1.6-4.3c0.5-3.7-0.8-7.4-3.4-10c-3.5-3.5-9-4.5-13.5-2.4
	c-0.3,0.1-0.6,0.4-0.6,0.8c-0.1,0.4,0,0.7,0.3,1l6.6,6.6c1.1,1.1,1.2,2.9,0.3,3.9c-0.5,0.6-1.2,0.9-2,0.9c-0.8,0-1.5-0.3-2-0.8
	l-6.7-6.7c-0.3-0.3-0.6-0.4-1-0.3c-0.4,0.1-0.7,0.3-0.8,0.6C-475.7,272.1-474.7,277.5-471.2,281z M-472.2,270l5.5,5.5
	c0.9,0.9,2.3,1.5,3.6,1.4c1.4,0,2.6-0.6,3.5-1.6c1.8-1.9,1.6-5-0.3-6.9l-5.3-5.3c0.8-0.2,1.7-0.3,2.5-0.3c2.6,0,5.1,1,7,2.9
	c2.2,2.2,3.2,5.1,2.8,8.2c-0.3,2.2,0.6,4.5,2.2,6.1l0,0l12.2,12.2c1.3,1.3,1.3,3.4,0,4.6c-1.3,1.3-3.4,1.3-4.6,0l-12.2-12.2
	c-1.7-1.7-4-2.5-6.1-2.2c-3,0.4-6-0.6-8.2-2.8C-472.1,277-473.1,273.3-472.2,270z"/>
</svg>
